
        <svg xmlns="http://www.w3.org/2000/svg" xmlns:xlink="http://www.w3.org/1999/xlink" version="1.1" width="3200" 
        height="2031.8000030517578" viewBox="0 -100 3200 2031.8000030517578" class='svg'>
			
			<g transform="scale(10) translate(10, 10)">
				<defs id="SvgjsDefs18106"><linearGradient id="SvgjsLinearGradient18113"><stop id="SvgjsStop18114" stop-color="#ef4136" offset="0"></stop><stop id="SvgjsStop18115" stop-color="#fbb040" offset="1"></stop></linearGradient><linearGradient id="SvgjsLinearGradient18116"><stop id="SvgjsStop18117" stop-color="#ef4136" offset="0"></stop><stop id="SvgjsStop18118" stop-color="#fbb040" offset="1"></stop></linearGradient><linearGradient id="SvgjsLinearGradient18119"><stop id="SvgjsStop18120" stop-color="#ef4136" offset="0"></stop><stop id="SvgjsStop18121" stop-color="#fbb040" offset="1"></stop></linearGradient></defs><g id="SvgjsG18107" featureKey="symbolFeature-0" transform="matrix(1.000007171682292,0,0,1.000007171682292,100.00051498782416,-12.84439338668658)" fill="url(#SvgjsLinearGradient18113)"> <path xmlns="http://www.w3.org/2000/svg" d="m99.957 87.602 0.003907-0.050781c0.003906-0.082031 0.003906-0.19141 0.003906-0.19141 0-17.734-9.2891-33.328-23.25-42.203-0.15234-3.6562-0.69531-7.3203-1.668-10.941-3.457-12.895-11.727-23.672-23.289-30.348l-0.10547-0.058594c-0.082032-0.042969-0.1875-0.09375-0.1875-0.09375l-0.007813-0.003906-1.6133-0.86719c0.0625 0.03125-1.125 0.73047-1.4375 0.91016l-0.003906 0.003906c-0.078125 0.039063-0.15234 0.082032-0.15234 0.082032-15.387 8.8867-24.258 24.734-24.969 41.262-3.0898 1.9609-5.9922 4.2656-8.6445 6.918-9.4375 9.4375-14.637 21.988-14.637 35.34v0.10938c0.0039062 0.097656 0.011719 0.21094 0.011719 0.21094v0.007812l0.0625 1.8242c-0.0039063-0.050781 1.1953 0.62891 1.5078 0.80469l0.027344 0.015625c0.066406 0.042969 0.14844 0.089844 0.14844 0.089844 15.371 8.875 33.523 8.6289 48.191 0.97656 3.2422 1.6953 6.6914 3.0586 10.312 4.0273 12.898 3.457 26.363 1.6836 37.926-4.9922l0.10547-0.0625c0.085937-0.054688 0.18359-0.12109 0.18359-0.12109l0.007813-0.003906 1.5156-0.96094c-0.035156 0.027344-0.042969-1.3242-0.042969-1.6836zm-49.977-77.16c9.2578 5.832 15.895 14.816 18.75 25.469 0.49609 1.8516 0.85547 3.7188 1.1055 5.5898 0 0.011719 0.003906 0.019531 0.003906 0.03125 0.24609 1.8555 0.37109 3.7148 0.37891 5.5664l-0.046875-0.078125c0.003906 0.62109-0.03125 1.2422-0.054687 1.8633v0.046876c-0.17188 4.332-0.98047 8.5977-2.3984 12.652-0.53516 1.5312-1.1523 3.0312-1.8594 4.4961-0.074219 0.15234-0.14844 0.30859-0.22266 0.46484-0.19922 0.39453-0.41406 0.77734-0.625 1.168-0.19531 0.36719-0.37891 0.73828-0.58594 1.0977-0.015625 0.023437-0.027343 0.046875-0.039062 0.070312-0.21875 0.38281-0.46875 0.75391-0.70312 1.1289-3.7266-1.543-6.9844-3.9492-9.5469-7.0469-0.070313-0.085938-0.14453-0.16797-0.21094-0.25781 0.0625-0.11328 0.11719-0.21875 0.17578-0.32812 0.18359-0.34766 0.34766-0.6875 0.49219-0.99219 0.082031-0.17187 0.15625-0.33594 0.23047-0.49219l0.83203-1.6953c0.33594-0.80469 0.62891-1.625 0.89453-2.4492 0.027344-0.082032 0.050781-0.16797 0.074219-0.25 0.94531-3.0078 1.4492-6.1406 1.4492-9.2969 0-0.83984-0.046875-1.6797-0.11328-2.5195 0-0.003907-0.003907-0.011719-0.003907-0.015626-0.15234-1.8867-0.46875-3.7617-0.96094-5.6094-0.10938-0.41406-0.25781-0.81641-0.38281-1.2266v-0.003906c-0.89453-2.8555-2.1836-5.5898-3.8945-8.1328l-2.7148-4.0391-2.7148 4.0391c-1.7109 2.543-3.0195 5.2812-3.9258 8.1289-4.5859 0.60547-9.0273 1.832-13.219 3.6445 1.6523-12.391 8.5859-23.938 19.836-31.023zm-43.398 75.172c0.42969-10.949 4.8867-21.18 12.68-28.973 1.3555-1.3555 2.793-2.6016 4.2891-3.7539 0.007813-0.007813 0.015625-0.011719 0.023438-0.019531 1.4844-1.1406 3.0312-2.1797 4.6328-3.1133l-0.046875 0.078125c0.53516-0.3125 1.0898-0.59375 1.6367-0.88281 0.015625-0.007813 0.027344-0.015625 0.039063-0.023438 3.8438-2.0195 7.9414-3.4531 12.168-4.2539 1.5977-0.30078 3.207-0.51953 4.8281-0.63672 0.16016-0.011718 0.32031-0.027344 0.48047-0.035156 0.44922-0.027344 0.89844-0.03125 1.3477-0.046875 0.4375-0.011719 0.87109-0.042969 1.3047-0.042969h0.003906 0.007812c0.44531 0 0.89063 0.03125 1.332 0.046875 0.14453 1.0781 0.21484 2.1602 0.21484 3.2383 0 2.9062-0.53906 5.7969-1.5547 8.5312-0.042969 0.10938-0.082031 0.22266-0.125 0.33203-0.53125 0.007812-1.0234 0.046875-1.457 0.082031-0.19141 0.015625-0.375 0.03125-0.54688 0.042969l-1.8164 0.12109c-0.88281 0.10937-1.7539 0.25781-2.6172 0.44141-0.09375 0.019531-0.1875 0.042968-0.28125 0.0625-3.9062 0.86719-7.5977 2.4766-10.898 4.7578-0.003906 0.003906-0.007812 0.007813-0.011718 0.011719-1.5469 1.0703-3.0156 2.2812-4.375 3.6445-0.30078 0.30078-0.57812 0.62891-0.86719 0.94531l-0.003906 0.003906c-2.0234 2.2031-3.75 4.6875-5.0977 7.4375l-2.1406 4.3711 4.8555 0.33203c3.082 0.21094 6.1055-0.027344 9.0039-0.66406 2.8164 3.668 6.0977 6.8984 9.7617 9.6211-11.539 4.7656-25 4.5352-36.77-1.6562zm55.367 3.5039c-1.8516-0.49609-3.6484-1.1172-5.3945-1.8398-0.015626-0.007813-0.027344-0.011719-0.042969-0.015625-1.7266-0.71484-3.3945-1.5312-5-2.4531h0.09375c-0.53906-0.30859-1.0586-0.64453-1.582-0.97656-0.011719-0.007812-0.027344-0.015625-0.039063-0.023437-3.6719-2.3164-6.9648-5.1523-9.7695-8.4141-1.0625-1.2383-2.0625-2.5273-2.9766-3.8789-0.082031-0.12109-0.16797-0.24219-0.25-0.36719-0.25391-0.37891-0.48438-0.77344-0.72656-1.1641-0.23047-0.37109-0.47266-0.73047-0.69141-1.1094-0.019531-0.035156-0.039062-0.070312-0.058593-0.10547-0.20312-0.35156-0.37891-0.71484-0.57422-1.0703 3.1992-2.457 6.9102-4.0742 10.875-4.7422 0.10938-0.019531 0.21875-0.039062 0.32812-0.058593h0.003906c0.27344 0.46094 0.55469 0.87109 0.80859 1.2305 0.10938 0.16016 0.21484 0.30859 0.3125 0.45312l1.0312 1.5352c0.53516 0.70703 1.0977 1.3867 1.6836 2.0391 0.058593 0.066406 0.12109 0.13281 0.18359 0.19922 2.7031 2.9492 5.9414 5.3398 9.5703 7.0586 0.003906 0.003907 0.011719 0.003907 0.015625 0.007813 1.7031 0.80469 3.4844 1.4688 5.3438 1.9648 0.41016 0.10938 0.83594 0.1875 1.2539 0.27734 2.8828 0.64063 5.9023 0.88281 9.0078 0.66797l4.8555-0.33203-2.1445-4.3711c-1.3594-2.7695-3.0781-5.2695-5.082-7.457 1.7656-4.2656 2.918-8.7148 3.4414-13.242 9.8984 7.6133 16.426 19.387 16.957 32.684-9.6836 5.0977-20.781 6.3555-31.434 3.5039z"></path></g><g id="SvgjsG18108" featureKey="nameFeature-0" transform="matrix(1.1637124016626086,0,0,1.1637124016626086,-3.8844412685345917,96.05439160442302)" fill="url(#SvgjsLinearGradient18116)"><path d="M34.859 35.3 l0.080272 4.6484 l-2.3241 0.04004 c-0.030078 0.0005078 -2.055 0.034258 -6.0152 0.034258 c-2.0063 0 -4.5092 -0.0089064 -7.5012 -0.034805 c-4.8264 -0.042108 -8.6856 -1.0842 -11.47 -3.0979 c-2.767 -2.0014 -4.2908 -4.9124 -4.2908 -8.1972 c0 -3.2826 1.5371 -6.2004 4.328 -8.2148 c2.766 -1.9969 6.7232 -3.0621 11.444 -3.0804 c8.882 -0.034258 13.438 0.00054688 13.483 0.00082032 l2.3244 0.01832 l-0.036641 4.6492 l-2.3244 -0.01832 c-0.044728 -0.0005078 -4.5784 -0.035039 -13.429 -0.00078124 c-6.8716 0.02668 -11.14 2.5732 -11.14 6.6464 c0 1.8039 0.79624 3.2946 2.3662 4.43 c1.9587 1.4167 4.9968 2.1832 8.7852 2.2161 c8.8288 0.077148 13.352 0.0017969 13.396 0.0010156 z M57.991 15.421 l18.353 24.38 l-5.9015 0 l-5.132 -6.7948 l-14.639 0 l-5.0572 6.7948 l-5.8354 0 z M54.192 28.311 l7.5966 0 l-3.7984 -5.0644 z M109.83500000000001 35.114 l2.324 -0.034844 l0.069572 4.6484 l-2.3241 0.034805 c-0.36176 0.005508 -0.77084 0.011797 -1.2174 0.011797 c-3.2279 0 -8.4052 -0.32016 -11.676 -3.5423 c-1.456 -1.4345 -2.3731 -3.258 -2.7396 -5.44 l-8.4109 0 l-0.033203 8.9792 l-4.6492 -0.017266 l0.074804 -20.255 l0 -2.327 l0.0086328 0 l0 -0.0086328 l2.3223 0.0086328 l21.902 0 c2.9457 0 7.3276 1.8136 7.3276 6.8096 c0 4.9964 -4.0724 6.81 -6.8096 6.81 l-6.9651 0 c0.25086 0.8504 0.65684 1.5585 1.2347 2.1279 c2.337 2.3019 7.216 2.2292 9.5608 2.1939 z M85.9028 26.143 l20.081 -0.000039062 c0.20297 -0.0070704 0.80852 -0.083436 1.3076 -0.35942 c0.43216 -0.2391 0.87372 -0.64012 0.87372 -1.8015 c0 -0.93384 -0.31598 -1.4394 -1.1276 -1.8033 c-0.73764 -0.33062 -1.543 -0.3573 -1.5506 -0.3573 l-19.584 0 l0 4.3216 z M144.088 16.95 c2.9747 0 7.4 1.8319 7.4 6.8776 s-4.1128 6.8776 -6.8776 6.8776 l-20.344 0 l-0.033476 9.0684 l-4.6952 -0.017539 l0.075588 -20.455 l0 -2.3514 l0.0086328 0 l0 -0.0086328 l2.3477 0.0086328 l22.118 0 z M145.911 25.647 c0.43632 -0.24144 0.8826 -0.64608 0.88236 -1.819 c0 -0.94328 -0.31914 -1.4539 -1.139 -1.8214 c-0.745 -0.33402 -1.5585 -0.36098 -1.5661 -0.36098 l-19.779 0 l0 4.3645 l20.281 0 c0.2048 -0.0070704 0.81636 -0.08422 1.3204 -0.36305 z M167.511 15.421 l18.353 24.38 l-5.9015 0 l-5.132 -6.7948 l-14.639 0 l-5.0572 6.7948 l-5.8354 0 z M163.712 28.311 l7.5966 0 l-3.7984 -5.0644 z M196.276 22.009 c-0.43632 0.24117 -0.88236 0.64612 -0.88236 1.8193 c0 0.91448 0.29558 1.4144 1.0547 1.7822 c0.76772 0.37195 1.6239 0.39914 1.6671 0.4002 l17.067 0.06672 c2.9656 0 7.3912 1.8316 7.3912 6.8776 s-4.1128 6.8776 -6.8776 6.8776 l-24.997 0 l0 -4.6954 l24.977 0 c0.2048 -0.0070704 0.81636 -0.08422 1.3204 -0.36305 c0.43656 -0.24144 0.88256 -0.64636 0.88256 -1.8193 c0 -0.91448 -0.29558 -1.4144 -1.0547 -1.7822 c-0.7654 -0.37094 -1.6208 -0.39894 -1.6686 -0.40024 l-17.056 -0.07586 l0 0.0091406 c-2.975 0 -7.4008 -1.8316 -7.4008 -6.8776 s4.1128 -6.8776 6.8776 -6.8776 l24.997 0 l0 4.6954 l-24.976 0 c-0.20457 0.0070704 -0.81668 0.08422 -1.321 0.36305 z M234.836 22.009 c-0.43632 0.24117 -0.88236 0.64612 -0.88236 1.8193 c0 0.91448 0.29558 1.4144 1.0547 1.7822 c0.76772 0.37195 1.6239 0.39914 1.6671 0.4002 l17.067 0.06672 c2.9656 0 7.3912 1.8316 7.3912 6.8776 s-4.1128 6.8776 -6.8776 6.8776 l-24.997 0 l0 -4.6954 l24.977 0 c0.2048 -0.0070704 0.81636 -0.08422 1.3204 -0.36305 c0.43656 -0.24144 0.88256 -0.64636 0.88256 -1.8193 c0 -0.91448 -0.29558 -1.4144 -1.0547 -1.7822 c-0.7654 -0.37094 -1.6208 -0.39894 -1.6686 -0.40024 l-17.056 -0.07586 l0 0.0091406 c-2.975 0 -7.4008 -1.8316 -7.4008 -6.8776 s4.1128 -6.8776 6.8776 -6.8776 l24.997 0 l0 4.6954 l-24.976 0 c-0.20457 0.0070704 -0.81668 0.08422 -1.321 0.36305 z"></path></g><g id="SvgjsG18109" featureKey="sloganFeature-0" transform="matrix(1,0,0,1,57.78000009059906,153.09999990463257)" fill="url(#SvgjsLinearGradient18119)"><path d="M9.92 12.940000000000001 l3.14 7.06 l-1.8 0 c-0.14 0 -0.32 -0.12 -0.38 -0.24 l-2.84 -6.42 l-4.56 0 c-0.2 0 -0.38 0.18 -0.38 0.38 l0 6.02 c0 0.14 -0.12 0.26 -0.26 0.26 l-1.62 0 l0 -14.76 c0 -0.14 0.12 -0.26 0.26 -0.26 l1.62 0 l0 7.06 c0.2 -0.24 0.58 -0.42 1 -0.42 l4.22 0 c0.84 0 1.52 -0.68 1.52 -1.52 l0 -4.86 c0 -0.14 0.12 -0.26 0.28 -0.26 l1.62 0 l0 4.96 c0 1.3 -0.74 2.44 -1.82 3 z M18 20.08 c-1.88 0 -3.4 -1.52 -3.4 -3.4 l0 -11.7 l1.62 0 c0.14 0 0.26 0.12 0.26 0.26 l0 11.6 c0 0.84 0.68 1.52 1.52 1.52 l4.52 0 c0.84 0 1.52 -0.68 1.52 -1.52 l0 -11.6 c0 -0.14 0.12 -0.26 0.26 -0.26 l1.62 0 l0 11.7 c0 1.88 -1.54 3.4 -3.4 3.4 l-4.52 0 z M36.68000000000001 13.7 l1.82 3.58 c-0.2 -1.56 -0.2 -2.82 -0.3 -4.24 l0 -7.8 c0 -0.14 0.12 -0.26 0.26 -0.26 l1.62 0 l0 15.02 l-1.74 0 c-0.14 0 -0.32 -0.12 -0.38 -0.24 l-6.84 -12.74 c-0.1 -0.18 -0.34 -0.32 -0.54 -0.32 l-0.34 0 l0 13.04 c0 0.14 -0.12 0.26 -0.26 0.26 l-1.62 0 l0 -14.76 c0 -0.14 0.12 -0.26 0.26 -0.26 l2.28 0 c0.64 0 1.4 0.46 1.7 1.02 z M41.92 4.98 l10.64 0 l0 1.46 c0 0.14 -0.12 0.26 -0.26 0.26 l-4.28 0 l0 13.04 c0 0.14 -0.1 0.26 -0.26 0.26 l-1.62 0 l0 -13.3 l-4.48 0 l0 -1.46 c0 -0.14 0.12 -0.26 0.26 -0.26 z M62.00000000000001 20.08 l-4.52 0 c-1.88 0 -3.4 -1.52 -3.4 -3.4 l0 -8.38 c0 -1.88 1.52 -3.4 3.4 -3.4 l4.52 0 c1.86 0 3.4 1.52 3.4 3.4 l0 8.38 c0 1.88 -1.54 3.4 -3.4 3.4 z M57.480000000000004 6.619999999999999 c-0.84 0 -1.52 0.68 -1.52 1.52 l0 8.7 c0 0.84 0.68 1.52 1.52 1.52 l4.52 0 c0.84 0 1.52 -0.68 1.52 -1.52 l0 -8.7 c0 -0.84 -0.68 -1.52 -1.52 -1.52 l-4.52 0 z M67.22000000000001 4.98 l10.64 0 l0 1.46 c0 0.14 -0.12 0.26 -0.26 0.26 l-4.28 0 l0 13.04 c0 0.14 -0.1 0.26 -0.26 0.26 l-1.62 0 l0 -13.3 l-4.48 0 l0 -1.46 c0 -0.14 0.12 -0.26 0.26 -0.26 z M86.30000000000001 5.119999999999999 l5.24 14.88 l-1.64 0 c-0.18 0 -0.32 -0.12 -0.36 -0.26 l-1.34 -3.86 l-7.64 0 l-1.34 3.86 c-0.04 0.14 -0.2 0.26 -0.36 0.26 l-1.64 0 l4.88 -13.9 c0.24 -0.66 0.86 -1.12 1.58 -1.12 l2.38 0 c0.1 0 0.2 0.06 0.24 0.14 z M81.16000000000001 14.16 l6.44 0 l-2.6 -7.46 l-0.98 0 c-0.16 0 -0.3 0.1 -0.36 0.26 z M95.02000000000001 12.8 l-0.04 0 l0 6.94 c0 0.14 -0.12 0.26 -0.26 0.26 l-1.62 0 l0 -13.86 c0 -0.64 0.52 -1.16 1.16 -1.16 l6.28 0 c1.88 0 3.4 1.18 3.4 3.22 l0 1.94 c0 1.76 -1.26 2.72 -2.72 3.1 l3.2 6.76 l-1.74 0 c-0.14 0 -0.3 -0.12 -0.36 -0.24 l-3.04 -6.42 l-2.56 0 l-0.58 0 c-0.56 0 -0.98 -0.16 -1.12 -0.54 z M95.36 11.62 l5.18 0 c0.84 0 1.52 -0.68 1.52 -1.52 l0 -1.88 c0 -0.84 -0.68 -1.52 -1.52 -1.52 l-5.18 0 c-0.22 0 -0.38 0.18 -0.38 0.38 l0 4.16 c0 0.22 0.18 0.38 0.38 0.38 z M114.74000000000001 12.940000000000001 l3.14 7.06 l-1.8 0 c-0.14 0 -0.32 -0.12 -0.38 -0.24 l-2.84 -6.42 l-4.56 0 c-0.2 0 -0.38 0.18 -0.38 0.38 l0 6.02 c0 0.14 -0.12 0.26 -0.26 0.26 l-1.62 0 l0 -14.76 c0 -0.14 0.12 -0.26 0.26 -0.26 l1.62 0 l0 7.06 c0.2 -0.24 0.58 -0.42 1 -0.42 l4.22 0 c0.84 0 1.52 -0.68 1.52 -1.52 l0 -4.86 c0 -0.14 0.12 -0.26 0.28 -0.26 l1.62 0 l0 4.96 c0 1.3 -0.74 2.44 -1.82 3 z M127.54 5.119999999999999 l5.24 14.88 l-1.64 0 c-0.18 0 -0.32 -0.12 -0.36 -0.26 l-1.34 -3.86 l-7.64 0 l-1.34 3.86 c-0.04 0.14 -0.2 0.26 -0.36 0.26 l-1.64 0 l4.88 -13.9 c0.24 -0.66 0.86 -1.12 1.58 -1.12 l2.38 0 c0.1 0 0.2 0.06 0.24 0.14 z M122.4 14.16 l6.44 0 l-2.6 -7.46 l-0.98 0 c-0.16 0 -0.3 0.1 -0.36 0.26 z M134.24 18.28 l7.4 0 c0.84 0 1.48 -0.68 1.48 -1.52 l0 -1.82 c0 -0.2 -0.16 -0.42 -0.36 -0.48 l-7.68 -2.56 c-0.6 -0.2 -1.1 -0.88 -1.1 -1.52 l0 -2.38 c0 -1.88 1.52 -3.02 3.4 -3.02 l7.12 0 l0 1.46 c0 0.14 -0.1 0.26 -0.26 0.26 l-6.86 0 c-0.84 0 -1.54 0.54 -1.54 1.38 l0 1.94 c0 0.22 0.16 0.44 0.36 0.5 l7.68 2.54 c0.6 0.2 1.04 0.9 1.04 1.54 l0 2.14 c0 1.88 -1.42 3.26 -3.28 3.26 l-7.66 0 l0 -1.46 c0 -0.16 0.12 -0.26 0.26 -0.26 z M146.48000000000002 4.98 l10.64 0 l0 1.46 c0 0.14 -0.12 0.26 -0.26 0.26 l-4.28 0 l0 13.04 c0 0.14 -0.1 0.26 -0.26 0.26 l-1.62 0 l0 -13.3 l-4.48 0 l0 -1.46 c0 -0.14 0.12 -0.26 0.26 -0.26 z M162.08 20.08 c-1.88 0 -3.4 -1.52 -3.4 -3.4 l0 -11.7 l1.62 0 c0.14 0 0.26 0.12 0.26 0.26 l0 11.6 c0 0.84 0.68 1.52 1.52 1.52 l4.52 0 c0.84 0 1.52 -0.68 1.52 -1.52 l0 -11.6 c0 -0.14 0.12 -0.26 0.26 -0.26 l1.62 0 l0 11.7 c0 1.88 -1.54 3.4 -3.4 3.4 l-4.52 0 z M172.34 18.28 l7.4 0 c0.84 0 1.48 -0.68 1.48 -1.52 l0 -1.82 c0 -0.2 -0.16 -0.42 -0.36 -0.48 l-7.68 -2.56 c-0.6 -0.2 -1.1 -0.88 -1.1 -1.52 l0 -2.38 c0 -1.88 1.52 -3.02 3.4 -3.02 l7.12 0 l0 1.46 c0 0.14 -0.1 0.26 -0.26 0.26 l-6.86 0 c-0.84 0 -1.54 0.54 -1.54 1.38 l0 1.94 c0 0.22 0.16 0.44 0.36 0.5 l7.68 2.54 c0.6 0.2 1.04 0.9 1.04 1.54 l0 2.14 c0 1.88 -1.42 3.26 -3.28 3.26 l-7.66 0 l0 -1.46 c0 -0.16 0.12 -0.26 0.26 -0.26 z"></path></g>
			</g>
		</svg>
	